<svg xmlns="http://www.w3.org/2000/svg" xmlns:xlink="http://www.w3.org/1999/xlink" width="40" height="40" viewBox="0 0 43.71 43.71"><defs><style>.cls-1{fill:url(#linear-gradient);}.cls-2{filter:url(#Rectangle_446);}.cls-3{fill:#fff;}</style><linearGradient id="linear-gradient" x1="-902.77" y1="545.91" x2="-903.64" y2="547.98" gradientTransform="matrix(30, 0, 0, -30, 27121.6, 16438.82)" gradientUnits="userSpaceOnUse"><stop offset="0" stop-color="#2594bc"/><stop offset="1" stop-color="#5fb6e3"/></linearGradient><filter id="Rectangle_446" width="48" height="48" name="Rectangle_446"><feOffset dy="3"/><feGaussianBlur result="blur" stdDeviation="3"/><feFlood flood-color="#85ddf7" flood-opacity="0.27"/><feComposite operator="in" in="blur"/><feComposite in="SourceGraphic"/></filter></defs><title>marker</title><g id="Layer_1" data-name="Layer 1"><rect id="Rectangle_446-2" data-name="Rectangle 446-2" class="cls-1" width="43.71" height="43.71" rx="10.2"/></g><g id="Layer_2" data-name="Layer 2"><g id="a1"><g id="icon"><path id="Path_1230" data-name="Path 1230" class="cls-3" d="M8.11,15.79H9.19v6.48H8.11A1.07,1.07,0,0,1,7,21.2H7V16.88a1.08,1.08,0,0,1,1.08-1.09Zm32.41,0H39.44v6.48h1.08A1.07,1.07,0,0,0,41.6,21.2h0V16.88a1.08,1.08,0,0,0-1.07-1.09h0Zm-3.24-2.16V33.08a2.16,2.16,0,0,1-2.15,2.17h0v2.16A2.16,2.16,0,0,1,33,39.57H30.8a2.16,2.16,0,0,1-2.16-2.16V35.25H20v2.16a2.16,2.16,0,0,1-2.16,2.16H15.67a2.16,2.16,0,0,1-2.16-2.16V35.25a2.16,2.16,0,0,1-2.16-2.16V13.63a6.48,6.48,0,0,1,6.48-6.48h13a6.48,6.48,0,0,1,6.48,6.48ZM20,11.47h8.64V9.31H20ZM17.84,30.92a2.17,2.17,0,1,0-2.17,2.16h0a2.16,2.16,0,0,0,2.16-2.16Zm17.28,0A2.16,2.16,0,1,0,33,33.08h0a2.16,2.16,0,0,0,2.16-2.16Zm0-17.29H13.51v13H35.12v-13Z" transform="translate(-2.4 -2.18)"/></g></g></g></svg>